<?xml version="1.0" encoding="utf-8"?>
<!-- Generator: Adobe Illustrator 25.4.1, SVG Export Plug-In . SVG Version: 6.00 Build 0)  -->
<svg version="1.1" id="katman_1" xmlns="http://www.w3.org/2000/svg" xmlns:xlink="http://www.w3.org/1999/xlink" x="0px" y="0px"
	 viewBox="0 0 1080 1080" style="enable-background:new 0 0 1080 1080;" xml:space="preserve">
<g>
	<path d="M12,232c-6.34,0-11.5-5.16-11.5-11.5V12C0.5,5.66,5.66,0.5,12,0.5h208.5c6.34,0,11.5,5.16,11.5,11.5v208.5
		c0,6.34-5.16,11.5-11.5,11.5H12z"/>
	<path d="M220.5,1c6.07,0,11,4.93,11,11v208.5c0,6.07-4.93,11-11,11H12c-6.07,0-11-4.93-11-11V12C1,5.93,5.93,1,12,1H220.5 M220.5,0
		H12C5.4,0,0,5.4,0,12v208.5c0,6.6,5.4,12,12,12h208.5c6.6,0,12-5.4,12-12V12C232.5,5.4,227.1,0,220.5,0L220.5,0z"/>
</g>
<g>
	<path d="M11.58,1079.26c-6.34,0-11.5-5.16-11.5-11.5v-208.5c0-6.34,5.16-11.5,11.5-11.5h208.5c6.34,0,11.5,5.16,11.5,11.5v208.5
		c0,6.34-5.16,11.5-11.5,11.5H11.58z"/>
	<path d="M220.08,848.26c6.07,0,11,4.93,11,11v208.5c0,6.07-4.93,11-11,11H11.58c-6.07,0-11-4.93-11-11v-208.5c0-6.07,4.93-11,11-11
		H220.08 M220.08,847.26H11.58c-6.6,0-12,5.4-12,12v208.5c0,6.6,5.4,12,12,12h208.5c6.6,0,12-5.4,12-12v-208.5
		C232.08,852.66,226.68,847.26,220.08,847.26L220.08,847.26z"/>
</g>
<g>
	<path d="M859.58,1079.26c-6.34,0-11.5-5.16-11.5-11.5v-208.5c0-6.34,5.16-11.5,11.5-11.5h208.5c6.34,0,11.5,5.16,11.5,11.5v208.5
		c0,6.34-5.16,11.5-11.5,11.5H859.58z"/>
	<path d="M1068.08,848.26c6.07,0,11,4.93,11,11v208.5c0,6.07-4.93,11-11,11h-208.5c-6.07,0-11-4.93-11-11v-208.5
		c0-6.07,4.93-11,11-11H1068.08 M1068.08,847.26h-208.5c-6.6,0-12,5.4-12,12v208.5c0,6.6,5.4,12,12,12h208.5c6.6,0,12-5.4,12-12
		v-208.5C1080.08,852.66,1074.68,847.26,1068.08,847.26L1068.08,847.26z"/>
</g>
<g>
	<path d="M859.5,232.26c-6.34,0-11.5-5.16-11.5-11.5V12.26c0-6.34,5.16-11.5,11.5-11.5H1068c6.34,0,11.5,5.16,11.5,11.5v208.5
		c0,6.34-5.16,11.5-11.5,11.5H859.5z"/>
	<path d="M1068,1.26c6.07,0,11,4.93,11,11v208.5c0,6.07-4.93,11-11,11H859.5c-6.07,0-11-4.93-11-11V12.26c0-6.07,4.93-11,11-11H1068
		 M1068,0.26H859.5c-6.6,0-12,5.4-12,12v208.5c0,6.6,5.4,12,12,12H1068c6.6,0,12-5.4,12-12V12.26C1080,5.66,1074.6,0.26,1068,0.26
		L1068,0.26z"/>
</g>
<g>
	<path d="M577,232.26c-6.34,0-11.5-5.16-11.5-11.5V12.26c0-6.34,5.16-11.5,11.5-11.5h208.5c6.34,0,11.5,5.16,11.5,11.5v208.5
		c0,6.34-5.16,11.5-11.5,11.5H577z"/>
	<path d="M785.5,1.26c6.07,0,11,4.93,11,11v208.5c0,6.07-4.93,11-11,11H577c-6.07,0-11-4.93-11-11V12.26c0-6.07,4.93-11,11-11H785.5
		 M785.5,0.26H577c-6.6,0-12,5.4-12,12v208.5c0,6.6,5.4,12,12,12h208.5c6.6,0,12-5.4,12-12V12.26C797.5,5.66,792.1,0.26,785.5,0.26
		L785.5,0.26z"/>
</g>
<g>
	<path d="M294.5,232c-6.34,0-11.5-5.16-11.5-11.5V12c0-6.34,5.16-11.5,11.5-11.5H503c6.34,0,11.5,5.16,11.5,11.5v208.5
		c0,6.34-5.16,11.5-11.5,11.5H294.5z"/>
	<path d="M503,1c6.07,0,11,4.93,11,11v208.5c0,6.07-4.93,11-11,11H294.5c-6.07,0-11-4.93-11-11V12c0-6.07,4.93-11,11-11H503 M503,0
		H294.5c-6.6,0-12,5.4-12,12v208.5c0,6.6,5.4,12,12,12H503c6.6,0,12-5.4,12-12V12C515,5.4,509.6,0,503,0L503,0z"/>
</g>
<g>
	<path d="M576.83,1079.39c-6.34,0-11.5-5.16-11.5-11.5v-208.5c0-6.34,5.16-11.5,11.5-11.5h208.5c6.34,0,11.5,5.16,11.5,11.5v208.5
		c0,6.34-5.16,11.5-11.5,11.5H576.83z"/>
	<path d="M785.33,848.39c6.07,0,11,4.93,11,11v208.5c0,6.07-4.93,11-11,11h-208.5c-6.07,0-11-4.93-11-11v-208.5
		c0-6.07,4.93-11,11-11H785.33 M785.33,847.39h-208.5c-6.6,0-12,5.4-12,12v208.5c0,6.6,5.4,12,12,12h208.5c6.6,0,12-5.4,12-12
		v-208.5C797.33,852.79,791.93,847.39,785.33,847.39L785.33,847.39z"/>
</g>
<g>
	<path d="M294.33,1079.13c-6.34,0-11.5-5.16-11.5-11.5v-208.5c0-6.34,5.16-11.5,11.5-11.5h208.5c6.34,0,11.5,5.16,11.5,11.5v208.5
		c0,6.34-5.16,11.5-11.5,11.5H294.33z"/>
	<path d="M502.83,848.13c6.07,0,11,4.93,11,11v208.5c0,6.07-4.93,11-11,11h-208.5c-6.07,0-11-4.93-11-11v-208.5
		c0-6.07,4.93-11,11-11H502.83 M502.83,847.13h-208.5c-6.6,0-12,5.4-12,12v208.5c0,6.6,5.4,12,12,12h208.5c6.6,0,12-5.4,12-12
		v-208.5C514.83,852.53,509.43,847.13,502.83,847.13L502.83,847.13z"/>
</g>
<g>
	<path d="M11.5,796.37c-6.34,0-11.5-5.16-11.5-11.5v-208.5c0-6.34,5.16-11.5,11.5-11.5H220c6.34,0,11.5,5.16,11.5,11.5v208.5
		c0,6.34-5.16,11.5-11.5,11.5H11.5z"/>
	<path d="M220,565.37c6.07,0,11,4.93,11,11v208.5c0,6.07-4.93,11-11,11H11.5c-6.07,0-11-4.93-11-11v-208.5c0-6.07,4.93-11,11-11H220
		 M220,564.37H11.5c-6.6,0-12,5.4-12,12v208.5c0,6.6,5.4,12,12,12H220c6.6,0,12-5.4,12-12v-208.5
		C232,569.77,226.6,564.37,220,564.37L220,564.37z"/>
</g>
<g>
	<path d="M859.5,796.37c-6.34,0-11.5-5.16-11.5-11.5v-208.5c0-6.34,5.16-11.5,11.5-11.5H1068c6.34,0,11.5,5.16,11.5,11.5v208.5
		c0,6.34-5.16,11.5-11.5,11.5H859.5z"/>
	<path d="M1068,565.37c6.07,0,11,4.93,11,11v208.5c0,6.07-4.93,11-11,11H859.5c-6.07,0-11-4.93-11-11v-208.5c0-6.07,4.93-11,11-11
		H1068 M1068,564.37H859.5c-6.6,0-12,5.4-12,12v208.5c0,6.6,5.4,12,12,12H1068c6.6,0,12-5.4,12-12v-208.5
		C1080,569.77,1074.6,564.37,1068,564.37L1068,564.37z"/>
</g>
<g>
	<path d="M576.75,796.5c-6.34,0-11.5-5.16-11.5-11.5V576.5c0-6.34,5.16-11.5,11.5-11.5h208.5c6.34,0,11.5,5.16,11.5,11.5V785
		c0,6.34-5.16,11.5-11.5,11.5H576.75z"/>
	<path d="M785.25,565.5c6.07,0,11,4.93,11,11V785c0,6.07-4.93,11-11,11h-208.5c-6.07,0-11-4.93-11-11V576.5c0-6.07,4.93-11,11-11
		H785.25 M785.25,564.5h-208.5c-6.6,0-12,5.4-12,12V785c0,6.6,5.4,12,12,12h208.5c6.6,0,12-5.4,12-12V576.5
		C797.25,569.9,791.85,564.5,785.25,564.5L785.25,564.5z"/>
</g>
<g>
	<path d="M294.25,796.24c-6.34,0-11.5-5.16-11.5-11.5v-208.5c0-6.34,5.16-11.5,11.5-11.5h208.5c6.34,0,11.5,5.16,11.5,11.5v208.5
		c0,6.34-5.16,11.5-11.5,11.5H294.25z"/>
	<path d="M502.75,565.24c6.07,0,11,4.93,11,11v208.5c0,6.07-4.93,11-11,11h-208.5c-6.07,0-11-4.93-11-11v-208.5
		c0-6.07,4.93-11,11-11H502.75 M502.75,564.24h-208.5c-6.6,0-12,5.4-12,12v208.5c0,6.6,5.4,12,12,12h208.5c6.6,0,12-5.4,12-12
		v-208.5C514.75,569.64,509.35,564.24,502.75,564.24L502.75,564.24z"/>
</g>
<g>
	<path d="M11.58,515.26c-6.34,0-11.5-5.16-11.5-11.5v-208.5c0-6.34,5.16-11.5,11.5-11.5h208.5c6.34,0,11.5,5.16,11.5,11.5v208.5
		c0,6.34-5.16,11.5-11.5,11.5H11.58z"/>
	<path d="M220.08,284.26c6.07,0,11,4.93,11,11v208.5c0,6.07-4.93,11-11,11H11.58c-6.07,0-11-4.93-11-11v-208.5c0-6.07,4.93-11,11-11
		H220.08 M220.08,283.26H11.58c-6.6,0-12,5.4-12,12v208.5c0,6.6,5.4,12,12,12h208.5c6.6,0,12-5.4,12-12v-208.5
		C232.08,288.66,226.68,283.26,220.08,283.26L220.08,283.26z"/>
</g>
<g>
	<path d="M859.58,515.26c-6.34,0-11.5-5.16-11.5-11.5v-208.5c0-6.34,5.16-11.5,11.5-11.5h208.5c6.34,0,11.5,5.16,11.5,11.5v208.5
		c0,6.34-5.16,11.5-11.5,11.5H859.58z"/>
	<path d="M1068.08,284.26c6.07,0,11,4.93,11,11v208.5c0,6.07-4.93,11-11,11h-208.5c-6.07,0-11-4.93-11-11v-208.5
		c0-6.07,4.93-11,11-11H1068.08 M1068.08,283.26h-208.5c-6.6,0-12,5.4-12,12v208.5c0,6.6,5.4,12,12,12h208.5c6.6,0,12-5.4,12-12
		v-208.5C1080.08,288.66,1074.68,283.26,1068.08,283.26L1068.08,283.26z"/>
</g>
<g>
	<path d="M576.83,515.39c-6.34,0-11.5-5.16-11.5-11.5v-208.5c0-6.34,5.16-11.5,11.5-11.5h208.5c6.34,0,11.5,5.16,11.5,11.5v208.5
		c0,6.34-5.16,11.5-11.5,11.5H576.83z"/>
	<path d="M785.33,284.39c6.07,0,11,4.93,11,11v208.5c0,6.07-4.93,11-11,11h-208.5c-6.07,0-11-4.93-11-11v-208.5
		c0-6.07,4.93-11,11-11H785.33 M785.33,283.39h-208.5c-6.6,0-12,5.4-12,12v208.5c0,6.6,5.4,12,12,12h208.5c6.6,0,12-5.4,12-12
		v-208.5C797.33,288.79,791.93,283.39,785.33,283.39L785.33,283.39z"/>
</g>
<g>
	<path d="M294.33,515.13c-6.34,0-11.5-5.16-11.5-11.5v-208.5c0-6.34,5.16-11.5,11.5-11.5h208.5c6.34,0,11.5,5.16,11.5,11.5v208.5
		c0,6.34-5.16,11.5-11.5,11.5H294.33z"/>
	<path d="M502.83,284.13c6.07,0,11,4.93,11,11v208.5c0,6.07-4.93,11-11,11h-208.5c-6.07,0-11-4.93-11-11v-208.5
		c0-6.07,4.93-11,11-11H502.83 M502.83,283.13h-208.5c-6.6,0-12,5.4-12,12v208.5c0,6.6,5.4,12,12,12h208.5c6.6,0,12-5.4,12-12
		v-208.5C514.83,288.53,509.43,283.13,502.83,283.13L502.83,283.13z"/>
</g>
</svg>
